<?xml version="1.0" encoding="utf-8"?>
<!-- Generator: Adobe Illustrator 19.0.0, SVG Export Plug-In . SVG Version: 6.00 Build 0)  -->
<svg version="1.1" id="Capa_1" xmlns="http://www.w3.org/2000/svg" xmlns:xlink="http://www.w3.org/1999/xlink" x="0px" y="0px"
	 viewBox="0 0 325.5 96.3" style="enable-background:new 0 0 325.5 96.3;" xml:space="preserve">
<style type="text/css">
	.st0{fill:#222121;}
	.st1{fill:#B43319;}
</style>
<g id="XMLID_1249_">
	<polygon id="XMLID_1563_" class="st0" points="266.8,52.5 273.4,55.5 273.4,39.7 266.8,43.5 	"/>
	<polygon id="XMLID_1562_" class="st0" points="261.2,67.2 240.3,83.4 240.3,57.1 233.6,53.9 233.6,97.3 268,70.3 	"/>
	<polygon id="XMLID_1561_" class="st0" points="258.2,6.2 266.7,9.7 245.5,17.7 323.5,46.8 302,68.7 295.3,65.7 311.8,49.4 
		227,17.8 	"/>
	<polygon id="XMLID_1560_" class="st1" points="264.6,4.1 272.7,1 309.6,13.3 248.5,48.5 298.8,72.1 293.6,77.5 233.8,49.7 
		294.7,14.4 	"/>
	<g id="XMLID_118_">
		<path id="XMLID_119_" class="st0" d="M164.3,90.5h-1.9l-8-12.3h-0.1c0.1,1.4,0.2,2.8,0.2,4v8.3h-1.6V75.8h1.9l8,12.3h0.1
			c0-0.2,0-0.8-0.1-1.7c0-1-0.1-1.7,0-2.1v-8.4h1.6V90.5z"/>
		<path id="XMLID_121_" class="st0" d="M176.5,90.5h-8.2V75.8h8.2v1.5H170V82h6.1v1.5H170v5.4h6.5V90.5z"/>
		<path id="XMLID_123_" class="st0" d="M192.6,90.5h-1.7l-3-9.8c-0.1-0.4-0.3-1-0.5-1.6c-0.2-0.7-0.3-1.1-0.3-1.2
			c-0.1,0.9-0.4,1.9-0.7,2.9l-2.9,9.8h-1.7L178,75.8h1.8l2.3,9.1c0.3,1.3,0.6,2.4,0.7,3.5c0.2-1.2,0.4-2.4,0.8-3.6l2.6-8.9h1.8
			l2.8,9c0.3,1,0.6,2.2,0.8,3.5c0.1-1,0.4-2.1,0.7-3.5l2.3-9h1.8L192.6,90.5z"/>
		<path id="XMLID_125_" class="st0" d="M207.1,86.5c0,1.3-0.5,2.3-1.4,3c-0.9,0.7-2.2,1.1-3.8,1.1c-1.7,0-3.1-0.2-4-0.7v-1.6
			c0.6,0.3,1.3,0.5,2,0.6c0.7,0.1,1.4,0.2,2.1,0.2c1.1,0,2-0.2,2.6-0.6c0.6-0.4,0.9-1,0.9-1.8c0-0.5-0.1-0.9-0.3-1.2s-0.5-0.6-1-0.9
			s-1.2-0.6-2.2-0.9c-1.4-0.5-2.3-1.1-2.9-1.7c-0.6-0.7-0.9-1.5-0.9-2.6c0-1.1,0.4-2,1.3-2.7c0.8-0.7,2-1,3.4-1c1.5,0,2.8,0.3,4,0.8
			l-0.5,1.5c-1.2-0.5-2.4-0.8-3.5-0.8c-0.9,0-1.6,0.2-2.1,0.6c-0.5,0.4-0.8,0.9-0.8,1.6c0,0.5,0.1,0.9,0.3,1.3
			c0.2,0.3,0.5,0.6,0.9,0.9s1.1,0.6,2,0.9c1.5,0.5,2.6,1.1,3.2,1.8C206.8,84.7,207.1,85.5,207.1,86.5z"/>
	</g>
	<rect id="XMLID_1558_" x="181.6" y="24.3" class="st0" width="25.9" height="5.3"/>
	<rect id="XMLID_1556_" x="181.6" y="56.7" class="st0" width="26.8" height="5.3"/>
	<path id="XMLID_1548_" class="st0" d="M35.6,42.8c0,6.2-1.7,11-5.2,14.3C27,60.3,22,62,15.5,62H4.9V24.3h11.6c6,0,10.7,1.6,14,4.8
		C33.9,32.4,35.6,36.9,35.6,42.8 M29.1,43c0-9-4.2-13.5-12.7-13.5h-5.3v27.3h4.4C24.6,56.8,29.1,52.2,29.1,43"/>
	<rect id="XMLID_1547_" x="43.7" y="24.3" class="st0" width="6.2" height="37.7"/>
	<path id="XMLID_1546_" class="st0" d="M75.8,29c-3.5,0-6.3,1.3-8.3,3.8c-2,2.5-3,6-3,10.4c0,4.6,1,8.1,2.9,10.5
		c1.9,2.4,4.8,3.6,8.5,3.6c1.6,0,3.1-0.2,4.6-0.5c1.5-0.3,3.1-0.7,4.7-1.2v5.3c-3,1.1-6.3,1.7-10,1.7c-5.5,0-9.8-1.7-12.7-5
		c-3-3.3-4.4-8.1-4.4-14.3c0-3.9,0.7-7.3,2.2-10.3c1.4-2.9,3.5-5.2,6.2-6.8c2.7-1.6,5.9-2.3,9.6-2.3c3.8,0,7.4,0.8,10.7,2.4
		l-2.2,5.1c-1.3-0.6-2.6-1.1-4-1.6C78.9,29.3,77.4,29,75.8,29"/>
	<polygon id="XMLID_1545_" class="st0" points="109.7,62 103.5,62 103.5,29.6 92.4,29.6 92.4,24.3 120.7,24.3 120.7,29.6 
		109.7,29.6 	"/>
	<rect id="XMLID_1544_" x="126.5" y="24.3" class="st0" width="6.2" height="37.7"/>
	<path id="XMLID_1541_" class="st0" d="M176.1,43.1c0,6.1-1.5,10.9-4.6,14.3c-3.1,3.4-7.4,5.1-13,5.1c-5.7,0-10.1-1.7-13.1-5.1
		c-3-3.4-4.6-8.2-4.6-14.4c0-6.2,1.5-11,4.6-14.3c3.1-3.3,7.4-5,13.1-5c5.6,0,9.9,1.7,13,5.1C174.5,32.2,176.1,37,176.1,43.1
		 M147.3,43.1c0,4.6,0.9,8.2,2.8,10.6c1.9,2.4,4.6,3.6,8.3,3.6c3.7,0,6.4-1.2,8.3-3.6c1.9-2.4,2.8-5.9,2.8-10.6
		c0-4.6-0.9-8.1-2.8-10.5c-1.8-2.4-4.6-3.6-8.3-3.6c-3.7,0-6.5,1.2-8.4,3.6C148.2,35,147.3,38.5,147.3,43.1"/>
	<polygon id="XMLID_1527_" class="st1" points="197.6,31 183.1,55.3 191.2,55.3 205.7,31 	"/>
</g>
</svg>
