<?xml version="1.0" encoding="utf-8"?>
<!-- Generator: Adobe Illustrator 19.0.0, SVG Export Plug-In . SVG Version: 6.00 Build 0)  -->
<svg version="1.1" id="Capa_1" xmlns="http://www.w3.org/2000/svg" xmlns:xlink="http://www.w3.org/1999/xlink" x="0px" y="0px"
	 viewBox="-144 -88.9 88.5 88.9" style="enable-background:new -144 -88.9 88.5 88.9;" xml:space="preserve">
<style type="text/css">
	.st0{fill:#FFFFFF;}
	.st1{fill:#9D2F1C;}
</style>
<path id="XMLID_1_" class="st0" d="M39-189.7c-3.9,0-7.6,1.8-10,4.7c-2.5-2.9-6.1-4.7-10-4.7c-6.9,0-12.2,5.4-12.2,12.3
	c0,8.5,7.6,15.3,19,25.9l3.2,2.9l3.2-2.9c11.5-10.5,19-17.4,19-25.9C51.2-184.4,45.9-189.7,39-189.7z M30.3-154.5l-0.4,0.4l-0.9,0.8
	l-0.9-0.8l-0.4-0.4c-5.4-5-10.1-9.2-13.1-13.1c-3-3.7-4.3-6.8-4.3-9.9c0-2.5,0.9-4.7,2.5-6.3c1.6-1.6,3.9-2.5,6.3-2.5
	c2.8,0,5.6,1.3,7.4,3.5l2.6,3.1l2.6-3.1c1.8-2.2,4.6-3.5,7.4-3.5c2.4,0,4.6,0.9,6.3,2.5c1.6,1.6,2.5,3.9,2.5,6.3
	c0,3.1-1.3,6.2-4.3,9.9C40.4-163.7,35.7-159.4,30.3-154.5z"/>
<g id="XMLID_5_">
	<path id="XMLID_53_" class="st0" d="M-223.4-98.1c-24.3,0-44.1-19.8-44.1-44.1s19.8-44.1,44.1-44.1s44.1,19.8,44.1,44.1
		S-199.1-98.1-223.4-98.1z M-223.4-183.3c-22.6,0-41,18.4-41,41.1s18.4,41.1,41.1,41.1s41.1-18.4,41.1-41.1
		C-182.2-164.9-200.7-183.3-223.4-183.3z"/>
</g>
<path id="XMLID_2_" class="st0" d="M-201.8-148.9h-15.3l-4.7-13.9c-0.2-0.7-0.9-1.1-1.6-1.1s-1.4,0.4-1.6,1.1l-4.6,13.9H-245
	c-0.9,0-1.7,0.8-1.7,1.7c0,0.1,0,0.2,0,0.3c0,0.4,0.2,0.8,0.7,1.2l12.6,8.9l-4.8,14c-0.2,0.7,0,1.4,0.6,1.9c0.3,0.2,0.6,0.4,0.9,0.4
	s0.8-0.2,1-0.4l12.3-8.8l12.3,8.8c0.3,0.2,0.7,0.4,1,0.4c0.4,0,0.6-0.2,0.9-0.4c0.6-0.4,0.8-1.2,0.6-1.9l-4.8-14.1l12.5-9l0.3-0.3
	c0.3-0.3,0.5-0.7,0.5-1.1C-200-148.1-200.9-148.9-201.8-148.9L-201.8-148.9z M-215-139.3c-1,0.8-1.5,2.1-1.1,3.3l3.1,9.1
	c0.1,0.4-0.3,0.7-0.6,0.5l-8.1-5.8c-0.5-0.4-1.1-0.5-1.7-0.5c-0.6,0-1.2,0.2-1.7,0.5l-8.1,5.7c-0.3,0.2-0.8-0.1-0.6-0.5l3.1-9.1
	c0.4-1.2,0-2.6-1.1-3.3l-8.4-6c-0.3-0.2-0.2-0.8,0.2-0.8h10.4c1.3,0,2.4-0.8,2.8-2l3.1-9.2c0.1-0.4,0.7-0.4,0.8,0l3.1,9.2
	c0.4,1.2,1.5,2,2.8,2h10.1c0.4,0,0.6,0.5,0.2,0.8L-215-139.3L-215-139.3z"/>
<g id="XMLID_3_">
	<path id="XMLID_4_" class="st1" d="M-99.8-110.2c-24.3,0-44.1-19.8-44.1-44.1s19.8-44.1,44.1-44.1s44.1,19.8,44.1,44.1
		S-75.5-110.2-99.8-110.2z M-99.8-195.4c-22.6,0-41,18.4-41,41.1s18.4,41.1,41.1,41.1s41.1-18.4,41.1-41.1S-77.1-195.4-99.8-195.4z"
		/>
</g>
<g id="Outline_1_">
	<g id="ui_x5F_spec_x5F_header_1_">
	</g>
	<path class="st1" d="M-87.7-176.1h-24c-2.6,0-4.8,2.2-4.8,4.8v38.4l16.8-7.2l16.8,7.2v-38.4C-82.9-173.9-85-176.1-87.7-176.1z
		 M-86.8-138.9l-12.9-5.6l-12.9,5.6v-33.5h25.8V-138.9z"/>
</g>
<g id="XMLID_7_">
	<path id="XMLID_8_" class="st0" d="M28.9-128.3c-24.3,0-44.1-19.8-44.1-44.1s19.8-44.1,44.1-44.1S73-196.7,73-172.4
		S53.2-128.3,28.9-128.3z M28.9-213.5c-22.6,0-41,18.4-41,41.1S6.3-131.3,29-131.3s41.1-18.4,41.1-41.1S51.6-213.5,28.9-213.5z"/>
</g>
<g id="XMLID_6_">
	<path id="XMLID_9_" class="st0" d="M-99.9,0.4c-24.3,0-44.1-19.8-44.1-44.1s19.8-44.1,44.1-44.1S-55.8-68-55.8-43.7
		S-75.6,0.4-99.9,0.4z M-99.9-84.8c-22.6,0-41,18.4-41,41.1s18.4,41.1,41.1,41.1S-58.7-21-58.7-43.7S-77.2-84.8-99.9-84.8z"/>
</g>
<g id="Outline">
	<g id="ui_x5F_spec_x5F_header">
	</g>
	<path class="st0" d="M-99-46.1c-5.8-1.5-7.7-3.1-7.7-5.5c0-2.8,2.6-4.7,6.9-4.7c4.5,0,6.2,2.2,6.4,5.4h5.6
		c-0.2-4.4-2.9-8.4-8.2-9.7v-5.6h-7.7v5.5c-5,1.1-8.9,4.3-8.9,9.2c0,5.9,4.9,8.8,12,10.5c6.4,1.5,7.7,3.8,7.7,6.2
		c0,1.8-1.3,4.6-6.9,4.6c-5.3,0-7.3-2.3-7.6-5.4h-5.6c0.3,5.6,4.5,8.7,9.4,9.8v5.5h7.7v-5.5c5-0.9,8.9-3.8,8.9-9.1
		C-87-42.1-93.2-44.6-99-46.1z"/>
</g>
</svg>
