<?xml version="1.0" encoding="utf-8"?>
<!-- Generator: Adobe Illustrator 19.0.0, SVG Export Plug-In . SVG Version: 6.00 Build 0)  -->
<svg version="1.1" id="Capa_1" xmlns="http://www.w3.org/2000/svg" xmlns:xlink="http://www.w3.org/1999/xlink" x="0px" y="0px"
	 viewBox="0 0 88.5 88.9" style="enable-background:new 0 0 88.5 88.9;" xml:space="preserve">
<style type="text/css">
	.st0{fill:#FFFFFF;}
	.st1{fill:#9D2F1C;}
	.st2{fill:#FFFFFF;stroke:#9D2F1C;stroke-width:2;stroke-miterlimit:10;}
	.st3{fill:none;stroke:#9D2F1C;stroke-width:3;stroke-miterlimit:10;}
	.st4{fill:none;stroke:#9A999E;stroke-miterlimit:10;}
</style>
<rect id="XMLID_122_" x="-629.8" y="-455.3" class="st0" width="1926.2" height="373"/>
<rect id="XMLID_109_" x="-627.7" y="-539.7" class="st1" width="1926.2" height="84.4"/>
<text id="XMLID_693_" transform="matrix(1 0 0 1 -546.6289 -487.3112)" class="st0" style="font-family:'OpenSans-Semibold'; font-size:26px;">Registrate y accedé a todos los beneficios que te brinda DICTIOZ News !</text>
<g id="XMLID_753_">
	<g id="XMLID_604_">
		<rect id="XMLID_110_" x="40.2" y="-169.3" class="st1" width="255" height="50.5"/>
		<g id="XMLID_120_">
			<g id="XMLID_111_">
				
					<text id="XMLID_20_" transform="matrix(1.1598 0 0 1 71.6859 -135.1343)" class="st0" style="font-family:'OpenSans-Extrabold'; font-size:20px; letter-spacing:1,7;">REGISTRARME!</text>
			</g>
		</g>
		<g id="XMLID_140_">
			<path id="XMLID_137_" class="st2" d="M38.2-195c-2,0.7-3,2.7-2.3,4.7l0.6,1.7c-6.2,3.8-9.1,11.6-6.7,18.8l4.4,13l-3.1,6.3
				l0.8,2.4l39.9-13.5l-0.8-2.4l-6.3-3.1l-4.4-13c-2.4-7.2-9.6-11.6-16.8-10.9l-0.6-1.7C42.2-194.7,40.2-195.7,38.2-195L38.2-195z"
				/>
			<path id="XMLID_136_" class="st0" d="M54.1-147.9c2.6-0.9,4-3.7,3.1-6.3l-9.4,3.2C48.7-148.4,51.5-147,54.1-147.9z"/>
		</g>
	</g>
	<text id="XMLID_519_" transform="matrix(1 0 0 1 317.6711 -135.1345)"><tspan x="0" y="0" style="fill:#5D5D5D; font-family:'OpenSans-Semibold'; font-size:26px;">Ya tengo cuenta</tspan><tspan x="202.2" y="0" class="st1" style="font-family:'OpenSans-Semibold'; font-size:26px;">. Ingresar</tspan></text>
</g>
<g id="XMLID_1149_">
	<circle id="XMLID_1094_" class="st3" cx="-442" cy="-364.4" r="42.6"/>
	<path id="XMLID_953_" class="st1" d="M-420.4-371.1h-15.3l-4.7-13.9c-0.2-0.7-0.9-1.1-1.6-1.1s-1.4,0.4-1.6,1.1l-4.7,13.9h-15.4
		c-0.9,0-1.7,0.8-1.7,1.7c0,0.1,0,0.2,0,0.3c0,0.4,0.2,0.8,0.7,1.2l12.6,8.9l-4.8,14.1c-0.2,0.7,0,1.4,0.6,1.9
		c0.3,0.2,0.6,0.4,0.9,0.4c0.3,0,0.8-0.2,1-0.4l12.3-8.8l12.3,8.8c0.3,0.2,0.7,0.4,1,0.4c0.4,0,0.6-0.2,0.9-0.4
		c0.6-0.4,0.8-1.2,0.6-1.9l-4.8-14.1l12.5-9l0.3-0.3c0.3-0.3,0.5-0.7,0.5-1.1C-418.6-370.4-419.5-371.1-420.4-371.1L-420.4-371.1z
		 M-433.7-361.5c-1,0.8-1.5,2.1-1.1,3.3l3.1,9.1c0.1,0.4-0.3,0.7-0.6,0.5l-8.1-5.8c-0.5-0.4-1.1-0.5-1.7-0.5c-0.6,0-1.2,0.2-1.7,0.5
		l-8.1,5.7c-0.3,0.2-0.8-0.1-0.6-0.5l3.1-9.1c0.4-1.2,0-2.6-1.1-3.3l-8.4-6c-0.3-0.2-0.2-0.8,0.2-0.8h10.3c1.3,0,2.4-0.8,2.8-2
		l3.1-9.2c0.1-0.4,0.7-0.4,0.8,0l3.1,9.2c0.4,1.2,1.5,2,2.8,2h10.1c0.4,0,0.6,0.5,0.2,0.8L-433.7-361.5L-433.7-361.5z"/>
</g>
<text id="XMLID_1147_" transform="matrix(1 0 0 1 -542.0626 -275.4802)" style="opacity:0.9;"><tspan x="0" y="0" style="fill:#5D5D5D; font-family:'OpenSans-Semibold'; font-size:18px;">Organizamos tus notas</tspan><tspan x="-2.8" y="21.6" style="fill:#5D5D5D; font-family:'OpenSans-Semibold'; font-size:18px;">por categorias favoritas</tspan></text>
<g id="XMLID_532_">
	<circle id="XMLID_1129_" class="st3" cx="-133" cy="-364.4" r="42.6"/>
	<g id="XMLID_1056_">
		<path id="XMLID_1051_" class="st1" d="M-150.1-344.9c-0.2,0-0.3,0-0.5-0.1c-0.5-0.2-0.8-0.6-0.8-1.1v-19.5
			c0-10.1,8.1-18.4,18.3-18.4c10.1,0,18.4,8.1,18.4,18.3c0,10.1-8.1,18.4-18.3,18.4c-3.9,0-7.6-1.2-10.8-3.5l-5.5,5.5
			C-149.5-345-149.8-344.9-150.1-344.9 M-133.1-381.4c-8.7,0-15.8,7.1-15.8,15.8v16.5l4.2-4.2c0.4-0.4,1.1-0.5,1.6-0.1
			c6.8,5.5,16.7,4.5,22.3-2.3c5.5-6.8,4.5-16.7-2.3-22.3C-125.9-380.2-129.4-381.4-133.1-381.4"/>
		<rect id="XMLID_1050_" x="-134.7" y="-366.1" class="st1" width="3.3" height="3.3"/>
		<rect id="XMLID_956_" x="-126.4" y="-366.1" class="st1" width="3.3" height="3.3"/>
		<rect id="XMLID_954_" x="-142.9" y="-366.1" class="st1" width="3.3" height="3.3"/>
	</g>
</g>
<text id="XMLID_1166_" transform="matrix(1 0 0 1 -207.9094 -275.48)" style="opacity:0.9;"><tspan x="0" y="0" style="fill:#5D5D5D; font-family:'OpenSans-Semibold'; font-size:18px;">Guardá tus notas</tspan><tspan x="-3.6" y="21.6" style="fill:#5D5D5D; font-family:'OpenSans-Semibold'; font-size:18px;">y leelas mas tarde</tspan></text>
<g id="XMLID_490_">
	<g id="XMLID_138_">
		<circle id="XMLID_1142_" class="st3" cx="175.8" cy="-364.4" r="42.6"/>
		<path id="XMLID_1095_" class="st1" d="M185.9-381.7c-3.9,0-7.6,1.8-10,4.7c-2.5-2.9-6.1-4.7-10-4.7c-6.9,0-12.2,5.4-12.2,12.3
			c0,8.5,7.6,15.3,19,25.9l3.2,2.9l3.2-2.9c11.5-10.5,19-17.4,19-25.9C198.1-376.4,192.8-381.7,185.9-381.7z M177.2-346.5l-0.4,0.4
			l-0.9,0.8l-0.9-0.8l-0.4-0.4c-5.4-5-10.1-9.2-13.1-13.1c-3-3.7-4.3-6.8-4.3-9.9c0-2.5,0.9-4.7,2.5-6.3c1.6-1.6,3.9-2.5,6.3-2.5
			c2.8,0,5.6,1.3,7.4,3.5l2.6,3.1l2.6-3.1c1.8-2.2,4.6-3.5,7.4-3.5c2.4,0,4.6,0.9,6.3,2.5c1.6,1.6,2.5,3.9,2.5,6.3
			c0,3.1-1.3,6.2-4.3,9.9C187.3-355.7,182.6-351.4,177.2-346.5z"/>
	</g>
	<text id="XMLID_1167_" transform="matrix(1 0 0 1 93.1926 -275.48)" style="opacity:0.9;"><tspan x="0" y="0" style="fill:#5D5D5D; font-family:'OpenSans-Semibold'; font-size:18px;">Segui a tus autores</tspan><tspan x="44" y="21.6" style="fill:#5D5D5D; font-family:'OpenSans-Semibold'; font-size:18px;">favoritos</tspan></text>
</g>
<g id="XMLID_489_">
	<g id="XMLID_143_">
		<circle id="XMLID_1128_" class="st3" cx="480.4" cy="-364.4" r="42.6"/>
		<path id="XMLID_1101_" class="st1" d="M480.5-378.7c0.7,0,2.5,0.5,2.5,0.5c4.8,1.1,8.1,5.5,8.1,10.5v13.4l1,1l0.8,0.8h-25.1
			l0.8-0.8l1-1v-13.4c0-5,3.4-9.4,8.1-10.5c0,0,1.9-0.5,2.5-0.5 M480.4-386.3c-1.8,0-3.3,1.4-3.3,3.3v1.5
			c-6.2,1.4-10.9,7.1-10.9,13.7v12l-4.3,4.4v2.2h36.9v-2.2l-4.3-4.4v-12c0-6.7-4.7-12.3-10.9-13.7v-1.5
			C483.7-384.9,482.2-386.3,480.4-386.3L480.4-386.3z M484.7-347h-8.7c0,2.4,2,4.4,4.3,4.4S484.7-344.6,484.7-347z"/>
	</g>
	<text id="XMLID_1168_" transform="matrix(1 0 0 1 369.0261 -275.4797)" style="opacity:0.9;"><tspan x="0" y="0" style="fill:#5D5D5D; font-family:'OpenSans-Semibold'; font-size:18px;">Se el primero en recibir las</tspan><tspan x="3.7" y="21.6" style="fill:#5D5D5D; font-family:'OpenSans-Semibold'; font-size:18px;">novedades de tus autores</tspan><tspan x="32" y="43.2" style="fill:#5D5D5D; font-family:'OpenSans-Semibold'; font-size:18px;"> y temas preferidos</tspan></text>
</g>
<text id="XMLID_1169_" transform="matrix(1 0 0 1 706.8132 -275.48)" style="opacity:0.9;"><tspan x="0" y="0" style="fill:#5D5D5D; font-family:'OpenSans-Semibold'; font-size:18px;">Personalizá tu perfil</tspan><tspan x="1.1" y="21.6" style="fill:#5D5D5D; font-family:'OpenSans-Semibold'; font-size:18px;">y filtrá tu contenido</tspan><tspan x="28" y="43.2" style="fill:#5D5D5D; font-family:'OpenSans-Semibold'; font-size:18px;">como quieras</tspan></text>
<g id="XMLID_458_">
	<text id="XMLID_1170_" transform="matrix(1 0 0 1 1010.3459 -275.48)" style="opacity:0.9;"><tspan x="0" y="0" style="fill:#5D5D5D; font-family:'OpenSans-Semibold'; font-size:18px;">Compartí contendido</tspan><tspan x="13.9" y="21.6" style="fill:#5D5D5D; font-family:'OpenSans-Semibold'; font-size:18px;">en todo momento</tspan></text>
	<g id="XMLID_155_">
		<circle id="XMLID_1171_" class="st3" cx="1102.6" cy="-364.4" r="42.6"/>
		<path id="XMLID_1197_" class="st1" d="M1113.7-345.5c-0.4-0.1-0.8-0.2-1.2-0.3c-2.7-0.9-4.4-3.6-4-6.4c0-0.3-0.1-0.3-0.3-0.4
			c-2.3-1.3-4.6-2.6-6.9-3.8c-2.1-1.2-4.2-2.3-6.3-3.5c-0.2-0.1-0.4-0.1-0.6,0.1c-1.8,1.4-3.8,1.8-5.9,1c-2.1-0.8-3.4-2.4-3.7-4.6
			c-0.6-3.8,2.6-7.2,6.4-6.8c1.2,0.1,2.3,0.6,3.2,1.3c0.2,0.2,0.4,0.2,0.6,0.1c4.4-2.4,8.7-4.8,13.1-7.3c0.3-0.2,0.4-0.3,0.3-0.7
			c-0.4-2.9,1.7-5.7,4.5-6.3c3.5-0.8,6.9,1.6,7.3,5.2c0.3,3.1-1.9,6-5,6.4c-1.9,0.3-3.5-0.2-4.9-1.5c-0.2-0.1-0.3-0.2-0.5-0.1
			c-4.4,2.4-8.8,4.9-13.1,7.3c-0.2,0.1-0.3,0.3-0.3,0.5c0,0.6,0,1.2,0,1.8c0,0.2-0.1,0.3,0.2,0.5c4.5,2.5,9,5,13.4,7.5
			c0.3-0.2,0.6-0.5,0.8-0.7c3.5-2.5,8.6-0.3,9.2,4c0.5,3.3-1.7,6.2-4.9,6.7c-0.1,0-0.1,0-0.2,0.1
			C1114.6-345.5,1114.1-345.5,1113.7-345.5z"/>
	</g>
</g>
<line id="XMLID_516_" class="st4" x1="-280" y1="-228.5" x2="-280" y2="-420.5"/>
<line id="XMLID_527_" class="st4" x1="45.3" y1="-228.5" x2="45.3" y2="-420.5"/>
<line id="XMLID_565_" class="st4" x1="341.3" y1="-228.5" x2="341.3" y2="-420.5"/>
<line id="XMLID_567_" class="st4" x1="637.3" y1="-228.5" x2="637.3" y2="-420.5"/>
<line id="XMLID_578_" class="st4" x1="933.4" y1="-228.5" x2="933.4" y2="-420.5"/>
<g id="XMLID_145_">
	<path id="XMLID_526_" class="st3" d="M832.5-365.6c0,13.4-6.2,25.4-15.9,33.2c-7.3,5.9-16.6,9.4-26.7,9.4
		c-23.5,0-42.6-19.1-42.6-42.6c0-23.5,19.1-42.6,42.6-42.6S832.5-389.1,832.5-365.6z"/>
	<g id="XMLID_583_">
		<path id="XMLID_751_" class="st1" d="M818.3-347.9c0.1-0.1,0.2-0.3,0.3-0.4C818.5-348.1,818.4-348,818.3-347.9z"/>
		<path id="XMLID_698_" class="st1" d="M761.1-347.1"/>
		<path id="XMLID_774_" class="st1" d="M816.6-345.8l-0.9-1.4c-3.8-5.6-9.3-10-15.7-12.3l-2-0.7l1.6-1.4c3.3-2.9,5.1-7,5.1-11.3
			c0-8.4-6.9-15.3-15.3-15.3s-15.3,6.9-15.3,15.3c0,4.3,1.9,8.5,5.2,11.3l1.6,1.4l-2,0.7c-6.4,2.3-12,6.6-15.7,12.3l-0.9,1.4
			l2.7,2.7l0.5-0.9c2.4-4,5.7-7.3,9.7-9.7c6.4-3.8,13.9-4.9,21.1-3.1c7.2,1.8,13.3,6.4,17.1,12.8l0.5,0.9L816.6-345.8z M789.4-361.2
			c-6.4,0-11.6-5.2-11.6-11.6s5.2-11.6,11.6-11.6h0c6.4,0,11.6,5.2,11.6,11.6C801-366.4,795.8-361.2,789.4-361.2z"/>
	</g>
	<path id="XMLID_691_" class="st1" d="M820.6-334.5c-2.4-15.1-15.4-26.7-31.2-26.7c-15.3,0-28,10.8-31,25.2l3.1,3
		c1.7-13.9,13.5-24.6,27.8-24.6c14.7,0,26.8,11.3,27.9,25.8L820.6-334.5z"/>
</g>
<g id="XMLID_892_">
	<g id="XMLID_1070_">
		<g id="XMLID_1071_">
			<path id="XMLID_1072_" class="st0" d="M1204.7-511.3c-7.6-7.6-19.9-7.6-27.6,0c-7.6,7.6-7.6,19.9,0,27.6s19.9,7.6,27.6,0
				S1212.3-503.7,1204.7-511.3z M1178.3-484.9c-7-7-7-18.3,0-25.3c7-7,18.3-7,25.3,0c7,7,7,18.3,0,25.3
				C1196.6-477.9,1185.3-477.9,1178.3-484.9z"/>
		</g>
	</g>
	<g id="XMLID_1059_">
		<polygon id="XMLID_1060_" class="st0" points="1200,-505.4 1198.8,-506.6 1190.9,-498.6 1183,-506.5 1181.9,-505.4 1189.8,-497.5 
			1181.9,-489.6 1183,-488.5 1190.9,-496.4 1198.8,-488.4 1200,-489.6 1192,-497.5 		"/>
	</g>
</g>
<g id="XMLID_1_">
	<g id="XMLID_5_">
		<path id="XMLID_53_" class="st1" d="M44.2,88.7c-24.3,0-44.1-19.8-44.1-44.1S19.9,0.5,44.2,0.5c24.3,0,44.1,19.8,44.1,44.1
			S68.5,88.7,44.2,88.7z M44.2,3.5C21.6,3.5,3.2,21.9,3.2,44.6s18.4,41.1,41.1,41.1c22.7,0,41.1-18.4,41.1-41.1S66.9,3.5,44.2,3.5z"
			/>
	</g>
</g>
<path id="XMLID_81_" class="st1" d="M53.7,65.7c-0.4-0.1-0.8-0.2-1.2-0.3c-2.9-1-4.6-3.8-4.2-6.8c0-0.3-0.1-0.3-0.3-0.4
	c-2.4-1.4-4.9-2.7-7.3-4.1c-2.2-1.2-4.5-2.5-6.7-3.7c-0.3-0.1-0.4-0.1-0.6,0.1c-1.9,1.5-4,1.9-6.3,1c-2.2-0.9-3.6-2.5-3.9-4.9
	c-0.6-4.1,2.7-7.6,6.8-7.2c1.3,0.1,2.4,0.6,3.4,1.4c0.2,0.2,0.4,0.2,0.6,0.1c4.6-2.6,9.2-5.1,13.9-7.7c0.3-0.2,0.4-0.3,0.4-0.7
	c-0.4-3,1.8-6,4.8-6.7c3.8-0.9,7.3,1.7,7.7,5.5c0.4,3.2-2.1,6.4-5.3,6.8c-2,0.3-3.7-0.2-5.2-1.5c-0.2-0.2-0.3-0.2-0.5-0.1
	c-4.6,2.6-9.3,5.2-13.9,7.7c-0.3,0.1-0.3,0.3-0.3,0.6c0,0.6,0,1.2,0,1.9c0,0.2-0.1,0.4,0.2,0.5c4.8,2.6,9.5,5.3,14.3,7.9
	c0.3-0.2,0.6-0.5,0.9-0.7c3.7-2.7,9.1-0.4,9.8,4.2c0.5,3.5-1.8,6.6-5.2,7.2c-0.1,0-0.1,0-0.2,0.1C54.7,65.7,54.2,65.7,53.7,65.7z"/>
</svg>
